<?xml version="1.0" encoding="UTF-8" standalone="no"?><!DOCTYPE svg PUBLIC "-//W3C//DTD SVG 1.1//EN" "http://www.w3.org/Graphics/SVG/1.1/DTD/svg11.dtd"><svg width="100%" height="100%" viewBox="0 0 432 384" version="1.1" xmlns="http://www.w3.org/2000/svg" xmlns:xlink="http://www.w3.org/1999/xlink" xml:space="preserve" xmlns:serif="http://www.serif.com/" style="fill-rule:evenodd;clip-rule:evenodd;stroke-linecap:round;stroke-linejoin:round;stroke-miterlimit:1.5;"><g id="Color"><g><path d="M41.497,257.833c-0.091,-0.095 -0.19,-0.196 -0.293,-0.304c-1.421,-1.47 -3.864,-4.053 -5.24,-6.367c-1.497,-2.519 -2.712,-5.492 -3.449,-8.44c-0.924,-3.694 -1.907,-9.103 -2.095,-13.728c-0.327,-8.04 0.521,-27.788 0.135,-34.508c-0.121,-2.1 -1.694,-4.12 -2.456,-5.812c-0.66,-1.468 -1.96,-2.74 -2.111,-4.343c-0.387,-4.101 -0.336,-16.448 -0.209,-20.267c0.031,-0.939 0.471,-1.851 0.972,-2.646c0.568,-0.903 1.587,-2.128 2.436,-2.769c0.764,-0.577 1.712,-0.946 2.659,-1.08c2.933,-0.416 10.936,-0.555 14.936,-1.415c3.196,-0.686 6.247,-2.268 9.065,-3.743c2.764,-1.446 6.099,-3.67 7.843,-5.106c1.126,-0.927 2.182,-2.465 2.618,-3.507c0.353,-0.844 0.097,-1.835 -0.002,-2.745c-0.121,-1.103 -0.482,-2.583 -0.723,-3.875c-0.314,-1.693 -0.99,-4.412 -1.167,-6.283c-0.155,-1.641 -0.269,-3.775 0.105,-4.944c0.303,-0.945 1.784,-1.144 2.141,-2.07c0.356,-0.925 0.42,-2.45 -0,-3.481c-0.421,-1.03 -2.25,-1.499 -2.523,-2.7c-0.42,-1.851 -0.417,-6.595 0,-8.405c0.263,-1.139 2.863,-1.344 2.504,-2.456c-0.478,-1.484 -4.116,-3.946 -5.373,-6.444c-1.636,-3.248 -3.678,-8.518 -4.442,-13.048c-0.784,-4.646 -0.72,-10.017 -0.26,-14.824c0.456,-4.759 1.187,-9.103 3.023,-14.02c0.996,-2.667 2.229,-5.604 3.869,-8.375c1.499,-2.531 3.385,-4.928 4.764,-6.752c2.35,-3.105 5.366,-5.787 8.706,-7.789c3.362,-2.014 7.462,-3.511 11.467,-4.298c4.276,-0.841 8.353,-1.18 12.553,-1.115c4.22,0.065 8.909,0.386 12.765,1.507c4.413,1.283 7.276,3.346 10.102,6.076c3.269,3.159 6.659,8.516 9.513,12.877c2.795,4.272 5.705,9.219 7.608,13.292c1.399,2.995 2.634,7.054 3.417,9.772c0.147,0.511 0.278,0.975 0.391,1.375c0.422,-0.087 0.889,-0.183 1.394,-0.286c4.242,-0.869 11.153,-2.25 16.532,-2.964c7.085,-0.94 16.372,-1.771 24.581,-2.39c8.358,-0.632 18.556,-1.182 25.566,-1.396c5.495,-0.168 12.323,0.064 16.493,0.113c2.486,0.03 5.696,0.109 7.73,0.162c0.292,0.007 0.559,0.014 0.797,0.021c0.136,-0.197 0.283,-0.408 0.438,-0.632c1.9,-2.733 5.182,-7.403 7.986,-10.656c3.017,-3.5 6.179,-6.929 9.779,-9.826c4.318,-3.474 11.051,-8.327 16.128,-11.019c4.482,-2.377 9.384,-4.078 14.328,-5.131c4.945,-1.054 10.276,-1.532 15.339,-1.192c5.064,0.339 10.421,1.422 15.044,3.23c4.596,1.797 8.76,4.638 12.694,7.617c4.06,3.075 8.454,6.887 11.671,10.83c3.145,3.856 5.756,8.713 7.63,12.83c1.713,3.764 2.905,7.795 3.613,11.87c0.799,4.603 1.323,10.534 1.181,15.748c-0.143,5.214 -0.495,10.546 -2.037,15.536c-1.668,5.401 -5.168,11.991 -7.974,16.87c-2.396,4.168 -6.3,9.167 -8.5,11.953c-0.126,0.16 -0.246,0.312 -0.36,0.456c0.095,0.254 0.193,0.513 0.291,0.775c5.671,15.084 16.552,44.026 22.24,59.044c4.027,10.634 8.645,21.661 12.19,31.86c3.361,9.669 6.069,20.241 9.078,29.336c2.805,8.476 6.231,18.014 8.977,25.234c2.32,6.1 5.326,11.932 7.499,18.086c2.479,7.022 4.878,17.018 7.377,24.049c2.196,6.177 4.88,12.175 7.617,18.132c2.97,6.461 6.607,13.866 10.199,20.636c3.509,6.613 8.53,15.177 11.172,19.676c0.061,0.105 0.122,0.208 0.181,0.308l-431.56,0c0.116,-0.103 0.234,-0.208 0.356,-0.316c4.232,-3.767 12.181,-10.85 17.418,-15.798c4.964,-4.69 11.668,-11.457 14.55,-14.425c0.869,-0.895 1.842,-2.174 2.465,-3.011c0.102,-0.137 0.194,-0.262 0.275,-0.372c-0.015,-0.184 -0.034,-0.406 -0.055,-0.655c-0.08,-0.956 -0.19,-2.3 -0.264,-3.364c-0.102,-1.473 -0.269,-3.208 -0.296,-4.817c-0.05,-2.917 -0.087,-10.231 -0,-12.685c0.024,-0.7 0.252,-1.389 0.522,-2.036c0.337,-0.805 0.859,-2.014 1.497,-2.796c0.633,-0.775 1.65,-1.472 2.33,-1.894c0.528,-0.327 1.182,-0.489 1.751,-0.635c0.324,-0.083 0.719,-0.141 1.066,-0.181c0.236,-0.028 0.449,-0.047 0.601,-0.061l0.014,-7.295c-0.134,-0.088 -0.297,-0.195 -0.478,-0.317c-0.646,-0.431 -1.526,-1.041 -2.163,-1.603c-1.038,-0.915 -2.655,-2.372 -3.587,-3.571c-0.847,-1.09 -1.584,-2.308 -2.005,-3.622c-0.469,-1.462 -0.773,-3.412 -0.805,-5.148c-0.033,-1.788 0.169,-3.796 0.607,-5.58c0.438,-1.782 1.139,-3.656 2.02,-5.122c0.843,-1.404 2.009,-2.619 3.262,-3.673c1.299,-1.093 3.05,-2.163 4.533,-2.885c1.378,-0.672 2.938,-1.303 4.364,-1.449c1.404,-0.144 3.147,0.048 4.194,0.572c0.84,0.419 1.497,1.482 1.901,2.216c0.071,0.129 0.134,0.248 0.189,0.351c-0.088,0.073 -0.195,0.162 -0.314,0.262c-0.423,0.357 -0.993,0.865 -1.366,1.34c-0.56,0.714 -1.351,1.679 -1.681,2.682c-0.343,1.044 -0.476,2.386 -0.381,3.584c0.115,1.464 0.503,3.955 1.073,5.198c0.39,0.851 1.38,1.599 2.05,2.062c0.108,0.075 0.207,0.142 0.294,0.2c0.098,-0.081 0.216,-0.18 0.346,-0.293c0.462,-0.402 1.069,-0.98 1.377,-1.562c0.539,-1.017 1.234,-2.769 1.511,-4.245c0.349,-1.856 0.578,-4.585 0.579,-6.889c0.003,-3.008 -0.247,-8.285 -0.565,-11.16c-0.228,-2.065 -0.838,-4.808 -1.341,-6.088c-0.222,-0.563 -0.844,-1.042 -1.327,-1.363c-0.132,-0.087 -0.254,-0.163 -0.354,-0.225c0.001,0.146 0.001,0.304 0.002,0.471c0.006,1.896 -0,5.054 -0.228,6.608c-0.14,0.96 -0.721,2.091 -1.109,2.799c-0.055,0.1 -0.106,0.192 -0.151,0.273l-2.802,0.137c-0.059,-0.095 -0.122,-0.196 -0.187,-0.302c-1.054,-1.706 -2.91,-4.737 -4.082,-7.148c-1.243,-2.56 -2.502,-5.867 -3.197,-7.915c-0.403,-1.191 -0.7,-2.777 -0.881,-3.838c-0.035,-0.199 -0.065,-0.38 -0.091,-0.536" style="stroke:#000;stroke-width:0.24px;"/></g><g id="R-ear" serif:id="R ear"><path d="M128.719,78.185c-0.023,-1.096 -0.068,-3.287 -0.799,-6.178c-0.571,-2.259 -1.288,-4.766 -2.801,-8.305c-1.05,-2.455 -3.553,-6.638 -4.527,-8.369c-1.808,-3.209 -3.264,-5.794 -5.787,-8.584c-2.577,-2.851 -6.443,-5.667 -10.331,-6.837c-3.888,-1.17 -8.907,-0.828 -12.997,-0.182c-4.028,0.636 -8.287,2.253 -11.542,4.059c-3.054,1.694 -6.006,3.903 -7.989,6.776c-2.326,3.369 -4.551,8.745 -5.965,13.437c-1.436,4.767 -2.706,10.695 -2.651,15.161c0.049,4.002 1.301,7.998 2.982,11.63c1.595,3.444 4.923,7.975 7.094,10.841c0.306,0.404 0.589,0.775 0.841,1.105c0.383,-0.243 0.797,-0.505 1.237,-0.785c4.978,-3.156 13.36,-8.445 18.718,-11.492c4.886,-2.778 10.962,-5.86 15.04,-7.622c3.022,-1.306 6.224,-2.183 9.426,-2.949c3.246,-0.776 7.783,-1.396 10.051,-1.706" style="fill:#fff;stroke:#000;stroke-width:0.24px;"/></g><g id="L-ear" serif:id="L ear"><path d="M311.512,132.927c2.075,-0.849 6.224,-2.548 8.634,-4.788c3.169,-2.947 7.747,-8.043 10.383,-12.89c2.896,-5.327 5.931,-12.384 6.995,-19.07c1.111,-6.981 0.663,-16.787 -0.331,-22.815c-0.786,-4.766 -2.854,-9.548 -5.633,-13.354c-2.78,-3.805 -6.878,-6.993 -11.046,-9.477c-4.231,-2.521 -9.839,-4.525 -14.34,-5.649c-4.112,-1.027 -8.443,-1.444 -12.666,-1.094c-4.262,0.354 -8.824,1.483 -12.904,3.214c-4.633,1.966 -10.706,5.515 -14.894,8.582c-3.815,2.795 -7.639,6.471 -10.235,9.826c-2.367,3.06 -4.302,6.578 -5.339,10.305c-0.576,2.071 -1.093,4.674 -1.189,7.118c-0.078,2.007 0.218,3.923 0.232,5.209c7.393,4.087 22.178,12.263 32.437,19.65c10.389,7.48 23.394,19.315 29.896,25.233" style="fill:#fff;stroke:#000;stroke-width:0.24px;"/></g><g id="L-eye" serif:id="L eye"><path d="M199.387,125.401c-0.372,1.57 -1.116,4.709 -1.972,6.966c-0.983,2.591 -2.537,5.946 -3.925,8.582c-1.316,2.498 -2.725,4.965 -4.407,7.232c-1.824,2.458 -4.281,5.401 -6.536,7.516c-2.117,1.985 -4.405,3.876 -6.999,5.175c-2.624,1.312 -6.083,2.248 -8.74,2.699c-2.367,0.402 -4.983,0.35 -7.203,0.009c-2.127,-0.328 -4.267,-1.169 -6.12,-2.059c-1.796,-0.862 -3.463,-2.008 -4.999,-3.277c-1.548,-1.278 -3.12,-2.814 -4.287,-4.388c-1.139,-1.537 -2.047,-3.378 -2.713,-5.058c-0.501,-1.268 -0.873,-2.954 -1.113,-4.168c-0.064,-0.325 -0.119,-0.616 -0.164,-0.856c0.265,-0.011 0.578,-0.024 0.925,-0.04c1.605,-0.074 3.945,-0.221 5.743,-0.587c2.671,-0.545 6.295,-1.578 9.356,-2.641c3.243,-1.126 6.753,-2.699 10.103,-4.115c3.81,-1.611 9.147,-4.076 12.757,-5.549c2.931,-1.196 6.496,-2.491 8.907,-3.291c1.821,-0.606 3.669,-1.158 5.555,-1.514c1.898,-0.358 4.521,-0.544 5.832,-0.636" style="fill:#fff;stroke:#000;stroke-width:0.24px;"/></g><g id="R-eye" serif:id="R eye"><path d="M68.019,127.143c0.135,0.091 0.28,0.19 0.434,0.294c1.875,1.268 5.109,3.41 7.829,4.552c2.85,1.198 7.177,2.25 9.764,2.856c0.242,0.056 0.47,0.109 0.679,0.158c0.005,0.244 0.011,0.524 0.016,0.83c0.032,1.769 0.048,4.409 -0.191,5.994c-0.228,1.511 -0.818,3.168 -1.507,4.33c-0.634,1.069 -1.55,2.026 -2.628,2.645c-1.139,0.653 -2.921,1.276 -4.206,1.276c-1.244,-0 -2.549,-0.482 -3.505,-1.276c-1.298,-1.079 -3.184,-3.239 -4.285,-5.196c-1.14,-2.029 -1.992,-4.265 -2.585,-6.53c-0.569,-2.17 -0.938,-5.375 -1.147,-7.342c-0.023,-0.221 -0.045,-0.427 -0.064,-0.613l1.396,-1.978" style="fill:#fff;stroke:#000;stroke-width:0.24px;"/></g><g id="R-eye-bronw" serif:id="R eye bronw"><path d="M91.211,128.914c-0.107,0.01 -0.244,0.022 -0.396,0.029c-0.369,0.016 -0.828,0.001 -1.158,-0.16c-0.57,-0.277 -1.328,-0.932 -1.867,-1.529c-0.821,-0.91 -2.042,-2.615 -3.057,-3.926c-1.067,-1.38 -2.204,-2.989 -3.348,-4.353c-1.114,-1.327 -2.223,-2.674 -3.516,-3.827c-1.414,-1.262 -3.255,-2.983 -4.967,-3.742c-0.898,-0.398 -2.018,-0.762 -3.19,-0.969c-0.925,-0.163 -1.883,-0.23 -2.619,-0.292c-0.197,-0.017 -0.377,-0.034 -0.537,-0.052c-0.014,0.165 -0.031,0.361 -0.049,0.58c-0.073,0.918 -0.163,2.231 -0.141,3.267c0.022,1.001 0.159,2.271 0.27,3.197c0.033,0.268 0.063,0.507 0.087,0.702c0.111,0.012 0.235,0.024 0.37,0.038c1,0.105 2.586,0.302 3.73,0.744c1.658,0.64 4.075,1.92 5.85,3.059c1.713,1.099 3.254,2.451 4.8,3.775c1.589,1.361 3.446,3.48 4.734,4.392c0.864,0.612 2.156,1.018 2.99,1.076c0.606,0.042 1.324,-0.327 1.792,-0.597c0.082,-0.048 0.157,-0.093 0.222,-0.131l-0,-1.281" style="fill:#fff;stroke:#000;stroke-width:0.24px;"/></g><g id="L-eye-bronw" serif:id="L eye bronw"><path d="M138.257,131.537c0.977,0.26 2.93,0.778 4.392,0.572c1.693,-0.239 4.1,-0.837 5.766,-2.004c1.862,-1.304 3.808,-3.71 5.405,-5.822c2.004,-2.651 3.946,-7.286 6.617,-10.082c2.659,-2.782 5.866,-5.19 9.409,-6.691c3.798,-1.609 8.811,-2.851 13.376,-2.961c4.651,-0.113 10.672,1.241 14.531,2.288c2.74,0.744 6.005,2.516 7.989,3.635c0.23,0.13 0.442,0.25 0.635,0.36l-5.664,6.487c-0.207,-0.086 -0.451,-0.187 -0.722,-0.297c-1.268,-0.515 -3.137,-1.231 -4.672,-1.533c-2.723,-0.536 -7.267,-1.52 -10.94,-1.383c-3.678,0.137 -7.982,0.962 -11.127,2.204c-2.899,1.145 -6.626,4.179 -7.739,5.247c-1.781,1.71 -6.027,6.187 -8.759,8.453c-2.36,1.957 -5.146,4.357 -7.629,5.139c-2.316,0.729 -5.856,0.204 -7.271,-0.449c-1.45,-0.669 -2.881,-2.331 -3.597,-3.163" style="fill:#fff;stroke:#000;stroke-width:0.24px;"/></g><g id="Nose"><path d="M29.449,179.301c-0,-0.989 1.269,0.923 1.755,0.931c0.486,0.008 0.963,-0.634 1.161,-0.884c0.127,-0.16 0.017,-0.384 0.028,-0.614c0.044,-0.877 0.121,-2.038 0.269,-2.559c0.103,-0.362 0.492,-0.592 0.822,-0.772c0.378,-0.205 0.94,-0.461 1.446,-0.461c0.823,-0 2.428,0.146 3.491,0.461c1.029,0.306 2.071,0.733 2.886,1.433c0.895,0.768 1.885,2.247 2.489,3.179c0.482,0.744 0.736,1.921 1.13,2.408c0.281,0.346 0.872,0.532 1.236,0.514c0.364,-0.019 0.891,-0.25 0.95,-0.625c0.111,-0.697 -0.098,-2.394 -0.285,-3.562c-0.188,-1.167 -0.157,-2.481 -0.84,-3.446c-1.187,-1.679 -4.619,-5.204 -6.283,-6.626c-1.056,-0.902 -2.339,-1.646 -3.702,-1.91c-1.438,-0.278 -4.242,0.62 -4.925,0.242c-0.684,-0.379 0.503,-1.709 0.824,-2.514c0.343,-0.856 0.621,-1.687 0.963,-2.543c0.933,-0.356 2.799,-1.067 4.263,-1.351c2.019,-0.392 5.216,-0.889 7.853,-1.002c3.697,-0.159 9.556,-0.117 14.33,0.052c4.837,0.172 10.791,0.578 14.696,0.976c2.933,0.299 7.14,0.358 8.732,1.411c1.383,0.915 0.702,3.252 0.82,4.905c0.188,2.62 0.464,7.968 0.308,10.814c-0.117,2.125 -0.657,4.74 -1.245,6.263c-0.441,1.142 -1.262,2.204 -2.286,2.875c-1.238,0.811 -3.327,1.704 -5.143,1.991c-3.856,0.611 -13.074,1.334 -17.992,1.675c-3.832,0.265 -7.678,0.504 -11.517,0.369c-4.012,-0.14 -9.851,0.231 -12.556,-1.213c-2.444,-1.304 -3.065,-5.99 -3.678,-7.45c-0.17,-0.404 -0,-0.511 -0,-1.313l-0,-1.654Z" style="fill:#fff;stroke:#000;stroke-width:0.24px;"/><path d="M77.438,182.766c-0.329,-0.06 -0.988,-0.18 -1.467,-0.077c-0.507,0.109 -1.198,0.512 -1.576,0.732c-0.261,0.152 -0.435,0.505 -0.69,0.588c-0.256,0.083 -0.662,0.105 -0.844,-0.088c-0.181,-0.192 -0.277,-0.751 -0.244,-1.067c0.032,-0.311 0.17,-0.671 0.44,-0.83c0.29,-0.171 1.099,0.006 1.301,-0.198c0.203,-0.204 0.087,-0.739 -0.085,-1.028c-0.172,-0.29 -0.691,-0.623 -0.947,-0.71c-0.196,-0.066 -0.391,0.142 -0.593,0.187c-1.685,0.38 -7.301,1.564 -9.519,2.09c-1.277,0.303 -2.927,0.481 -3.788,1.067c-0.775,0.526 -0.871,2.306 -1.381,2.447c-0.511,0.14 -1.363,-0.897 -1.68,-1.603c-0.327,-0.726 -0.404,-1.837 -0.277,-2.749c0.155,-1.115 0.583,-2.717 1.208,-3.94c0.627,-1.224 1.55,-2.4 2.55,-3.405c1.116,-1.119 2.659,-2.401 4.142,-3.31c1.483,-0.909 3.094,-1.638 4.758,-2.143c1.673,-0.508 3.611,-0.784 5.282,-0.906c1.578,-0.116 3.466,-0.121 4.744,0.17c1.078,0.247 2.257,0.814 2.92,1.579c0.663,0.766 1.067,1.949 1.056,3.014c-0.015,1.498 -0.525,4.369 -1.146,5.973c-0.538,1.39 -1.923,2.944 -2.581,3.651c-0.338,0.363 -1.023,0.516 -1.365,0.592" style="stroke:#000;stroke-width:0.24px;"/></g><g id="Mouss"><path d="M42.901,195.933c0.006,0.168 0.013,0.351 0.02,0.546c0.077,2.071 0.218,5.558 0.461,8.205c0.264,2.871 0.501,6.062 0.843,8.653c0.301,2.272 0.765,6.068 1.904,6.605c0.456,0.216 1.084,0.274 1.1,-0.094c0.066,-1.488 -0.584,-5.882 -0.707,-8.833c-0.151,-3.617 -0.203,-10.477 -0.197,-12.865c0.002,-0.495 0.01,-1.112 0.236,-1.466c0.225,-0.355 0.686,-0.627 1.118,-0.663c1.146,-0.094 3.84,0.135 5.759,0.098c2.528,-0.049 6.282,-0.112 9.409,-0.389c3.928,-0.347 10.974,-1.03 14.158,-1.695c1.779,-0.372 3.522,-1.32 4.945,-2.296c1.389,-0.953 2.769,-2.087 3.59,-3.559c0.978,-1.751 1.834,-4.552 2.277,-6.949c0.676,-3.656 1.514,-11.239 2.003,-15.762c0.041,-0.382 0.08,-0.743 0.116,-1.077c0.344,0.002 0.732,0.005 1.155,0.008c2.879,0.023 7.402,0.093 10.886,0.442c4.555,0.457 11.545,1.592 15.294,2.291c2.44,0.454 5.692,1.333 7.2,1.901c0.744,0.28 1.408,0.844 1.849,1.505c1.59,2.382 5.498,8.323 7.693,12.786c2.215,4.505 4.072,9.673 5.598,14.244c1.441,4.317 2.49,8.758 3.556,13.182c1.13,4.69 2.489,9.91 3.222,14.957c0.766,5.276 1.304,11.115 1.373,16.7c0.112,9.047 0.451,25.106 -0.704,37.582c-1.2,12.964 -4.175,29.735 -6.496,40.197c-1.716,7.735 -5.543,17.782 -7.429,22.578c-0.893,2.269 -2.207,4.539 -3.891,6.195c-1.684,1.656 -3.92,2.977 -6.214,3.739c-3.345,1.112 -9.161,2.43 -13.855,2.931c-6.578,0.703 -18.188,1.273 -25.615,1.284c-6.327,0.009 -13.558,-0.658 -18.942,-1.22c-4.487,-0.469 -9.885,-1.35 -13.362,-2.155c-2.586,-0.599 -5.974,-2.099 -7.5,-2.678c-0.571,-0.216 -1.307,-0.289 -1.654,-0.792c-0.443,-0.641 -0.701,-2.028 -1.004,-3.058c-0.437,-1.486 -1.286,-4.168 -1.62,-5.862c-0.278,-1.412 -0.154,-2.879 -0.382,-4.299c-0.257,-1.606 -0.872,-3.804 -1.162,-5.337c-0.242,-1.278 -0.853,-2.587 -0.578,-3.858c0.285,-1.31 1.963,-3.764 2.283,-4.002c0.32,-0.239 -0.306,1.731 -0.362,2.574c-0.054,0.825 -0.096,1.663 0.028,2.48c0.132,0.875 0.363,1.9 0.766,2.769c0.419,0.906 1.055,1.865 1.753,2.668c0.723,0.831 1.718,1.635 2.582,2.317c0.825,0.652 1.618,1.413 2.603,1.779c1.257,0.468 3.263,0.915 4.941,1.027c3.855,0.258 12.678,0.492 18.185,0.52c4.954,0.026 10.197,0.153 14.858,-0.351c4.435,-0.478 9.722,-1.571 13.112,-2.668c2.607,-0.842 5.02,-2.29 7.231,-3.908c2.522,-1.846 5.603,-4.451 7.899,-7.166c2.416,-2.856 4.802,-6.938 6.597,-9.971c1.567,-2.645 2.958,-5.411 4.176,-8.224c1.218,-2.812 2.267,-5.707 3.132,-8.649c1.046,-3.56 2.591,-8.635 3.145,-12.709c0.528,-3.877 0.557,-7.843 0.181,-11.738c-0.398,-4.125 -1.838,-10.015 -2.568,-13.015c-0.417,-1.718 -1.031,-3.666 -1.809,-4.986c-0.694,-1.176 -1.82,-2.047 -2.86,-2.931c-1.565,-1.329 -4.284,-3.47 -6.528,-5.042c-2.242,-1.571 -4.483,-3.183 -6.939,-4.391c-3.131,-1.54 -7.757,-3.634 -11.848,-4.85c-5.526,-1.643 -15.454,-3.918 -21.31,-5.007c-4.557,-0.848 -9.299,-1.219 -13.823,-1.528c-4.055,-0.277 -9.361,-0.314 -12.505,-0.324c-0.293,-0.001 -0.567,-0.002 -0.819,-0.002c-0.052,-0.16 -0.104,-0.317 -0.154,-0.472c-0.435,-1.338 -0.802,-2.526 -1.068,-3.951c-0.251,-1.344 -0.721,-2.788 -1.545,-4.036c-0.639,1.321 -0.648,2.846 -0.695,4.454c-0.042,1.443 0.246,3.172 0.146,4.755c-0.621,0.481 -1.861,1.442 -2.777,2.181c-1.202,0.972 -3.424,2.692 -4.434,3.647c-0.641,0.606 -1.116,1.721 -1.629,2.084c-0.396,0.28 -1.279,0.55 -1.452,0.097c-0.528,-1.38 -1.455,-5.54 -1.717,-8.38c-0.401,-4.336 -0.605,-11.835 -0.687,-17.638c-0.08,-5.728 0.065,-13.978 0.196,-17.183c0.029,-0.71 0.264,-1.606 0.589,-2.049c0.295,-0.401 0.866,-0.615 1.364,-0.609c1.349,0.015 4.844,0.417 6.893,0.657c0.146,0.017 0.286,0.034 0.416,0.049" style="fill:#fff;stroke:#000;stroke-width:0.24px;"/></g><g id="T-teeth" serif:id="T teeth"><path d="M125.042,263.587c-0.079,-0.293 -0.197,-0.616 -0.347,-0.963c-1.191,-2.744 -4.457,-6.961 -7.49,-9.277c-3.785,-2.893 -9.737,-5.437 -14.877,-7.114c-5.14,-1.677 -10.565,-2.575 -15.963,-2.949c-7.096,-0.491 -20.229,-0.179 -26.612,0c-3.912,0.11 -9.292,0.667 -11.69,1.076c-0.996,0.169 -2.022,0.704 -2.701,1.375c-0.679,0.671 -1.143,1.682 -1.373,2.65c-0.273,1.152 -0.49,2.858 -0.265,4.264c0.446,2.796 1.75,8.858 2.944,12.514c0.928,2.838 2.633,6.301 3.754,8.506c0.171,0.336 0.328,0.642 0.466,0.912c0,-0.269 0.001,-0.561 0.001,-0.872c0.006,-3.296 0.035,-8.673 0.323,-10.575c0.094,-0.619 1.144,-0.611 1.565,-1.04c0.421,-0.429 0.404,-1.299 0.959,-1.534c0.739,-0.311 2.311,-0.32 3.475,-0.335c1.97,-0.025 5.563,0.165 8.346,0.184c4.47,0.031 14.507,0.003 18.472,0c1.773,-0.001 4.027,-0.313 5.318,-0.016c0.982,0.225 2.194,0.815 2.432,1.794c0.533,2.192 0.862,8.037 1.046,11.671c0.019,0.378 0.037,0.732 0.053,1.055c0.179,-0.204 0.413,-0.469 0.668,-0.771c0.605,-0.715 1.337,-1.642 1.791,-2.482c0.784,-1.449 1.719,-3.563 2.245,-5.441c0.417,-1.488 0.665,-3.45 0.815,-4.855c0.039,-0.368 0.071,-0.698 0.098,-0.971c0.211,-0.024 0.462,-0.051 0.741,-0.08c1.231,-0.129 3.015,-0.287 4.419,-0.239c2.438,0.084 6.34,0.308 9.464,0.822c3.234,0.531 8.121,1.736 11.08,2.479c0.303,0.076 0.585,0.147 0.843,0.212" style="fill:#fff;stroke:#000;stroke-width:0.24px;"/></g><g id="B-teeth" serif:id="B teeth"><path d="M109.149,322.751c-0.146,-0.392 -0.437,-1.177 -0.961,-1.287c-1.726,-0.362 -7.469,-0.659 -9.39,-0.885c-0.726,-0.085 -1.536,-0.162 -2.14,-0.471c-0.603,-0.309 -1.27,-0.744 -1.485,-1.386c-0.328,-0.978 -0.185,-3.008 -0.481,-4.481c-0.34,-1.693 -0.74,-3.896 -1.561,-5.68c-0.642,-1.395 -1.821,-3.036 -2.719,-4.218c-0.259,-0.341 -0.495,-0.644 -0.688,-0.892c-0.014,0.323 -0.03,0.684 -0.048,1.075c-0.129,2.845 -0.34,7.247 -0.552,9.509c-0.154,1.635 -0.512,3.872 -0.852,4.854c-0.173,0.498 -0.664,1.066 -1.19,1.042c-5.929,-0.277 -28.44,-2.152 -34.383,-2.703c-0.469,-0.043 -1.053,-0.186 -1.278,-0.599c-0.502,-0.925 -1.235,-3.277 -1.736,-4.953c-0.413,-1.385 -0.868,-3.266 -1.186,-4.624c-0.085,-0.363 -0.16,-0.689 -0.222,-0.958c-0.166,0.167 -0.401,0.405 -0.651,0.672c-0.336,0.359 -0.697,0.773 -0.944,1.137c-0.415,0.613 -0.819,1.271 -0.982,1.994c-0.239,1.058 -0.474,2.895 -0.448,4.354c0.033,1.826 0.219,4.438 0.644,6.603c0.426,2.166 1.36,5.217 1.911,6.388c0.218,0.463 0.904,0.502 1.398,0.639c1.399,0.386 4.605,1.517 6.999,1.68c6.544,0.447 24.889,1.22 32.264,1.002c4.068,-0.12 8.543,-1.007 11.989,-2.309c3.208,-1.212 6.864,-4.073 8.692,-5.503" style="fill:#fff;stroke:#000;stroke-width:0.24px;"/></g><g id="tongue"><path d="M89.55,263.3c-0.005,0.414 -0.011,0.878 -0.018,1.378c-0.046,3.638 -0.103,9.17 0.018,11.106c0.023,0.368 0.464,0.668 0.827,0.733c0.684,0.124 2.268,0.424 3.281,0.011c1.177,-0.479 2.693,-1.785 3.783,-2.887c1.088,-1.098 1.947,-2.41 2.761,-3.724c0.825,-1.332 1.68,-3.052 2.192,-4.27c0.246,-0.587 0.457,-1.322 0.62,-1.964c0.107,-0.422 0.193,-0.804 0.255,-1.077c0.382,0.055 0.788,0.113 1.215,0.174c6.389,0.915 17.349,2.5 20.945,3.307c0.613,0.137 0.767,1.058 0.854,1.681c0.197,1.406 0.372,4.791 0.482,7.123c0.019,0.41 0.037,0.787 0.052,1.115c-0.225,0.177 -0.51,0.399 -0.825,0.654c-0.879,0.712 -1.994,1.677 -2.711,2.589c-0.974,1.239 -1.719,2.709 -2.309,4.191c-0.989,2.49 -2.172,7.418 -3.629,10.749c-1.41,3.223 -3.154,6.373 -5.111,9.235c-1.946,2.846 -4.294,5.785 -6.632,7.938c-2.185,2.014 -5.951,4.212 -7.392,4.984c-0.383,0.205 -1.106,0.06 -1.255,-0.348c-0.442,-1.211 -0.6,-4.706 -1.401,-6.918c-0.845,-2.334 -2.259,-5.658 -3.669,-7.085c-1.175,-1.189 -3.888,-1.451 -4.791,-1.477c-0.487,-0.014 -0.612,0.834 -0.627,1.321c-0.073,2.472 0.363,11.084 0.187,13.51c-0.039,0.54 -0.701,1.01 -1.241,1.045c-2.622,0.168 -9.663,0.119 -14.491,-0.036c-5.122,-0.164 -13.273,-0.634 -16.24,-0.949c-0.603,-0.063 -1.336,-0.373 -1.561,-0.936c-0.645,-1.618 -1.616,-6.928 -2.308,-8.767c-0.343,-0.912 -1.215,-1.84 -1.842,-2.27c-0.535,-0.367 -1.289,-0.458 -1.921,-0.312c-0.727,0.168 -1.79,0.682 -2.442,1.321c-0.652,0.638 -1.154,1.593 -1.468,2.51c-0.232,0.677 -0.351,1.629 -0.419,2.389c-0.027,0.306 -0.046,0.58 -0.061,0.793c-0.202,-0.143 -0.498,-0.353 -0.811,-0.595c-0.355,-0.274 -0.732,-0.589 -1.017,-0.894c-0.651,-0.695 -1.59,-1.664 -2.08,-2.685c-0.605,-1.262 -1.342,-3.193 -1.553,-4.891c-0.226,-1.821 -0.267,-4.126 0.196,-6.038c0.463,-1.912 1.42,-3.835 2.583,-5.433c1.162,-1.598 2.762,-3.052 4.39,-4.155c1.628,-1.103 4.268,-2.152 5.377,-2.462c0.455,-0.127 1.357,0.135 1.281,0.6c-0.095,0.591 -1.402,1.875 -1.855,2.943c-0.48,1.133 -1.024,2.526 -1.027,3.856c-0.005,1.543 0.237,3.739 1.003,5.403c0.803,1.746 2.383,3.664 3.814,5.068c1.389,1.363 3.049,2.458 4.774,3.358c1.725,0.9 3.748,1.674 5.578,2.042c1.767,0.356 3.778,0.579 5.403,0.167c0.914,-0.232 2.187,-0.583 3.026,-1.171c0.308,-0.216 0.59,-0.442 0.815,-0.674c0.252,-0.259 0.433,-0.525 0.504,-0.796c-0.226,0.08 -0.573,0.204 -0.948,0.319c-0.315,0.097 -0.648,0.188 -0.944,0.243c-0.995,0.186 -2.793,0.549 -4.077,0.551c-1.221,0.002 -2.553,-0.296 -3.624,-0.54c-0.562,-0.127 -1.217,-0.341 -1.787,-0.543c-0.402,-0.143 -0.762,-0.28 -1.017,-0.377c0.304,-0.076 0.719,-0.181 1.179,-0.311c0.786,-0.222 1.703,-0.518 2.415,-0.873c1.227,-0.613 2.645,-1.489 3.771,-2.49c1.331,-1.185 2.769,-2.413 4.218,-4.618c2.212,-3.367 4.918,-12.863 6.758,-16.919c1.179,-2.599 3.006,-5.45 4.279,-7.416c1,-1.545 2.316,-3.131 3.361,-4.382c0.628,-0.753 1.456,-1.631 2.128,-2.325c0.302,-0.313 0.573,-0.589 0.779,-0.799" style="fill:#f00;stroke:#000;stroke-width:0.24px;"/><path d="M89.968,280.564c-0.948,1.684 -3.639,7.225 -5.11,9.769c-1.106,1.914 -2.419,3.789 -3.714,5.493c-1.256,1.655 -3.081,3.717 -4.053,4.736c-0.519,0.543 -1.46,1.062 -1.781,1.377c-0.127,0.125 -0.209,0.405 -0.147,0.514c0.062,0.108 0.351,0.199 0.519,0.139c0.379,-0.135 1.205,-0.574 1.753,-0.951c0.627,-0.433 1.569,-1.195 2.623,-2.198c1.272,-1.21 2.59,-2.731 3.015,-3.272c1.554,-1.976 3.072,-4.397 4.07,-5.851c1.337,-1.949 2.644,-4.831 3.361,-6.243c0.365,-0.719 0.784,-1.664 0.939,-2.228c0.103,-0.373 0.142,-0.891 -0.007,-1.16c-0.149,-0.27 -0.644,-0.438 -0.889,-0.459c-0.222,-0.019 -0.469,0.14 -0.579,0.334Z" style="stroke:#000;stroke-width:0.24px;"/></g></g></svg>